<?xml version="1.0" encoding="UTF-8" standalone="no"?>
<!-- Created with Inkscape (http://www.inkscape.org/) -->

<svg
   xmlns:dc="http://purl.org/dc/elements/1.1/"
   xmlns:cc="http://creativecommons.org/ns#"
   xmlns:rdf="http://www.w3.org/1999/02/22-rdf-syntax-ns#"
   xmlns:svg="http://www.w3.org/2000/svg"
   xmlns="http://www.w3.org/2000/svg"
   xmlns:sodipodi="http://sodipodi.sourceforge.net/DTD/sodipodi-0.dtd"
   xmlns:inkscape="http://www.inkscape.org/namespaces/inkscape"
   width="210mm"
   height="297mm"
   viewBox="0 0 744.09448819 1052.3622047"
   id="svg2"
   version="1.1"
   inkscape:version="0.91 r"
   sodipodi:docname="case3.svg">
  <sodipodi:namedview
     id="base"
     pagecolor="#ffffff"
     bordercolor="#666666"
     borderopacity="1.0"
     inkscape:pageopacity="0.0"
     inkscape:pageshadow="2"
     inkscape:zoom="1.4"
     inkscape:cx="517.32699"
     inkscape:cy="750.45792"
     inkscape:document-units="px"
     inkscape:current-layer="layer1"
     showgrid="false"
     inkscape:window-width="1855"
     inkscape:window-height="1056"
     inkscape:window-x="1345"
     inkscape:window-y="24"
     inkscape:window-maximized="1" />
  <defs
     id="defs4" />
  <metadata
     id="metadata7">
    <rdf:RDF>
      <cc:Work
         rdf:about="">
        <dc:format>image/svg+xml</dc:format>
        <dc:type
           rdf:resource="http://purl.org/dc/dcmitype/StillImage" />
        <dc:title></dc:title>
      </cc:Work>
    </rdf:RDF>
  </metadata>
  <g
     id="layer1"
     inkscape:groupmode="layer"
     inkscape:label="Layer 1">
    <path
       id="path4141"
       inkscape:label="part"
       style="fill:none;stroke:#000000"
       d="m 158.22835,659.69066 64.63245,0 0,-10.62992 65.1108,0 0,10.62992 64.473,0 0,-10.62992 65.1108,0 0,10.62992 64.473,0 0,-10.62992 65.1108,0 0,10.62992 64.63245,0"
       inkscape:connector-curvature="0" />
    <path
       id="path4143"
       inkscape:label="part"
       style="fill:none;stroke:#000000"
       d="m 611.77165,659.69066 0,61.57678 -10.62992,0 0,71.72834 10.62992,0 0,61.57677"
       inkscape:connector-curvature="0" />
    <path
       id="path4145"
       inkscape:label="part"
       style="fill:none;stroke:#000000"
       d="m 611.77165,854.57255 -64.63245,0 0,10.62992 -65.1108,0 0,-10.62992 -64.473,0 0,10.62992 -65.1108,0 0,-10.62992 -64.473,0 0,10.62992 -65.1108,0 0,-10.62992 -64.63245,0"
       inkscape:connector-curvature="0" />
    <path
       id="path4147"
       inkscape:label="part"
       style="fill:none;stroke:#000000"
       d="m 158.22835,854.57255 0,-61.57677 10.62992,0 0,-71.72834 -10.62992,0 0,-61.57678"
       inkscape:connector-curvature="0" />
    <path
       id="path4149"
       inkscape:label="part"
       style="fill:none;stroke:#000000"
       d="m -48.683915,366.71541 61.257874,0 0,-10.62992 72.366142,0 0,10.62992 61.257879,0"
       inkscape:connector-curvature="0" />
    <path
       id="path4151"
       inkscape:label="part"
       style="fill:none;stroke:#000000"
       d="m 146.19798,366.71541 0,73.0689 10.62992,0 0,84.17716 -10.62992,0 0,73.0689"
       inkscape:connector-curvature="0" />
    <path
       id="path4153"
       inkscape:label="part"
       style="fill:none;stroke:#000000"
       d="m 146.19798,597.03037 -61.257879,0 0,10.62992 -72.366142,0 0,-10.62992 -61.257874,0"
       inkscape:connector-curvature="0" />
    <path
       id="path4155"
       inkscape:label="part"
       style="fill:none;stroke:#000000"
       d="m -48.683915,597.03037 0,-73.0689 -10.629921,0 0,-84.17716 10.629921,0 0,-73.0689"
       inkscape:connector-curvature="0" />
    <path
       id="path4157"
       inkscape:label="part"
       style="fill:none;stroke:#000000"
       d="m 160.3712,356.08549 64.95135,0 0,10.62992 64.47301,0 0,-10.62992 65.1108,0 0,10.62992 64.473,0 0,-10.62992 65.1108,0 0,10.62992 64.473,0 0,-10.62992 64.95135,0"
       inkscape:connector-curvature="0" />
    <path
       id="path4159"
       inkscape:label="part"
       style="fill:none;stroke:#000000"
       d="m 613.91451,356.08549 0,84.01772 -10.62992,0 0,83.53937 10.62992,0 0,84.01771"
       inkscape:connector-curvature="0" />
    <path
       id="path4161"
       inkscape:label="part"
       style="fill:none;stroke:#000000"
       d="m 613.91451,607.66029 -64.95135,0 0,-10.62992 -64.473,0 0,10.62992 -65.1108,0 0,-10.62992 -64.473,0 0,10.62992 -65.1108,0 0,-10.62992 -64.47301,0 0,10.62992 -64.95135,0"
       inkscape:connector-curvature="0" />
    <path
       id="path4163"
       inkscape:label="part"
       style="fill:none;stroke:#000000"
       d="m 160.3712,607.66029 0,-84.01771 10.62992,0 0,-83.53937 -10.62992,0 0,-84.01772"
       inkscape:connector-curvature="0" />
    <path
       id="path4165"
       inkscape:label="part"
       style="fill:none;stroke:#000000"
       d="m 628.08774,366.71541 61.25787,0 0,-10.62992 72.36614,0 0,10.62992 61.25788,0"
       inkscape:connector-curvature="0" />
    <path
       id="path4167"
       inkscape:label="part"
       style="fill:none;stroke:#000000"
       d="m 822.96963,366.71541 0,73.0689 10.62992,0 0,84.17716 -10.62992,0 0,73.0689"
       inkscape:connector-curvature="0" />
    <path
       id="path4169"
       inkscape:label="part"
       style="fill:none;stroke:#000000"
       d="m 822.96963,597.03037 -61.25788,0 0,10.62992 -72.36614,0 0,-10.62992 -61.25787,0"
       inkscape:connector-curvature="0" />
    <path
       id="path4171"
       inkscape:label="part"
       style="fill:none;stroke:#000000"
       d="m 628.08774,597.03037 0,-73.0689 -10.62992,0 0,-84.17716 10.62992,0 0,-73.0689"
       inkscape:connector-curvature="0" />
    <path
       id="path4173"
       inkscape:label="part"
       style="fill:none;stroke:#000000"
       d="m 837.14286,356.08549 64.95135,0 0,10.62992 64.473,0 0,-10.62992 65.11079,0 0,10.62992 64.473,0 0,-10.62992 65.1108,0 0,10.62992 64.473,0 0,-10.62992 64.9514,0"
       inkscape:connector-curvature="0" />
    <path
       id="path4175"
       inkscape:label="part"
       style="fill:none;stroke:#000000"
       d="m 1290.6862,356.08549 0,84.01772 -10.63,0 0,83.53937 10.63,0 0,84.01771"
       inkscape:connector-curvature="0" />
    <path
       id="path4177"
       inkscape:label="part"
       style="fill:none;stroke:#000000"
       d="m 1290.6862,607.66029 -64.9514,0 0,-10.62992 -64.473,0 0,10.62992 -65.1108,0 0,-10.62992 -64.473,0 0,10.62992 -65.11079,0 0,-10.62992 -64.473,0 0,10.62992 -64.95135,0"
       inkscape:connector-curvature="0" />
    <path
       id="path4179"
       inkscape:label="part"
       style="fill:none;stroke:#000000"
       d="m 837.14286,607.66029 0,-84.01771 10.62992,0 0,-83.53937 -10.62992,0 0,-84.01772"
       inkscape:connector-curvature="0" />
    <path
       id="path4181"
       inkscape:label="part"
       style="fill:none;stroke:#000000"
       d="m 136.08549,47.030371 64.63245,0 0,-10.629921 65.1108,0 0,10.629921 64.473,0 0,-10.629921 65.1108,0 0,10.629921 64.47301,0 0,-10.629921 65.11079,0 0,10.629921 64.63246,0"
       inkscape:connector-curvature="0" />
    <path
       id="path4183"
       inkscape:label="part"
       style="fill:none;stroke:#000000"
       d="m 589.6288,47.030371 0,61.576769 -10.62992,0 0,71.72835 10.62992,0 0,61.57677"
       inkscape:connector-curvature="0" />
    <path
       id="path4185"
       inkscape:label="part"
       style="fill:none;stroke:#000000;stroke-width:1;stroke-miterlimit:4;stroke-dasharray:none"
       d="m 589.6288,243.01783 -64.63246,0 0,34.13316 -65.11079,0 0,-34.13316 -64.47301,0 0,34.13316 -65.1108,0 0,-34.13316 -64.473,0 0,34.13316 -65.1108,0 0,-34.13316 -64.63245,0"
       inkscape:connector-curvature="0" />
    <path
       id="path4187"
       inkscape:label="part"
       style="fill:none;stroke:#000000"
       d="m 136.08549,241.91226 0,-61.57677 10.62992,0 0,-71.72835 -10.62992,0 0,-61.576769"
       inkscape:connector-curvature="0" />
    <path
       inkscape:connector-curvature="0"
       id="path7047"
       style="fill:none;fill-opacity:1;fill-rule:evenodd;stroke:#000000;stroke-width:1;stroke-linecap:square;stroke-linejoin:bevel;stroke-miterlimit:10;stroke-dasharray:none;stroke-opacity:1"
       d="m 221.84369,223.55717 c 0,-2.15391 -1.74609,-3.9 -3.9,-3.9 -2.15392,0 -3.9,1.74609 -3.9,3.9 0,2.1539 1.74608,3.9 3.9,3.9 2.15391,0 3.9,-1.7461 3.9,-3.9 z" />
    <path
       inkscape:connector-curvature="0"
       id="path7051"
       style="fill:none;fill-opacity:1;fill-rule:evenodd;stroke:#000000;stroke-width:1;stroke-linecap:square;stroke-linejoin:bevel;stroke-miterlimit:10;stroke-dasharray:none;stroke-opacity:1"
       d="m 221.84369,185.38217 c 0,-2.15391 -1.74609,-3.9 -3.9,-3.9 -2.15392,0 -3.9,1.74609 -3.9,3.9 0,2.1539 1.74608,3.9 3.9,3.9 2.15391,0 3.9,-1.7461 3.9,-3.9 z" />
    <path
       inkscape:connector-curvature="0"
       id="path7055"
       style="fill:none;fill-opacity:1;fill-rule:evenodd;stroke:#000000;stroke-width:1;stroke-linecap:square;stroke-linejoin:bevel;stroke-miterlimit:10;stroke-dasharray:none;stroke-opacity:1"
       d="m 518.69369,183.13217 c 0,-2.15391 -1.7461,-3.90001 -3.9,-3.90001 -2.15391,0 -3.9,1.7461 -3.9,3.90001 0,2.1539 1.74609,3.9 3.9,3.9 2.1539,0 3.9,-1.7461 3.9,-3.9 z" />
    <path
       inkscape:connector-curvature="0"
       id="path7063"
       style="fill:none;fill-opacity:1;fill-rule:evenodd;stroke:#000000;stroke-width:1;stroke-linecap:square;stroke-linejoin:bevel;stroke-miterlimit:10;stroke-dasharray:none;stroke-opacity:1"
       d="m 518.69369,223.55717 c 0,-2.15391 -1.7461,-3.9 -3.9,-3.9 -2.15391,0 -3.9,1.74609 -3.9,3.9 0,2.1539 1.74609,3.9 3.9,3.9 2.1539,0 3.9,-1.7461 3.9,-3.9 z" />
    <path
       inkscape:connector-curvature="0"
       id="path7067"
       style="fill:none;fill-opacity:1;fill-rule:evenodd;stroke:#000000;stroke-width:1;stroke-linecap:square;stroke-linejoin:bevel;stroke-miterlimit:10;stroke-dasharray:none;stroke-opacity:1"
       d="m 368.01868,223.55717 c 0,-2.15391 -1.7461,-3.9 -3.9,-3.9 -2.15391,0 -3.9,1.74609 -3.9,3.9 0,2.1539 1.74609,3.9 3.9,3.9 2.1539,0 3.9,-1.7461 3.9,-3.9 z" />
    <path
       inkscape:connector-curvature="0"
       id="path7075"
       style="fill:none;fill-opacity:1;fill-rule:evenodd;stroke:#000000;stroke-width:1;stroke-linecap:square;stroke-linejoin:bevel;stroke-miterlimit:10;stroke-dasharray:none;stroke-opacity:1"
       d="m 559.19369,63.957175 c 0,-2.153912 -1.7461,-3.9 -3.9,-3.9 -2.15391,0 -3.9,1.746088 -3.9,3.9 0,2.153908 1.74609,3.899995 3.9,3.899995 2.1539,0 3.9,-1.746087 3.9,-3.899995 z" />
    <rect
       style="fill:none;stroke:#000000;stroke-width:1;stroke-linejoin:miter;stroke-miterlimit:10;stroke-dasharray:none;stroke-opacity:1"
       id="rect8425"
       width="15.809038"
       height="15.809038"
       x="237.03915"
       y="195.47768" />
    <rect
       style="fill:none;stroke:#000000;stroke-width:1;stroke-linejoin:miter;stroke-miterlimit:10;stroke-dasharray:none;stroke-opacity:1"
       id="rect8425-9"
       width="15.809038"
       height="15.809038"
       x="270.78915"
       y="195.47768" />
    <rect
       style="fill:none;stroke:#000000;stroke-width:1;stroke-linejoin:miter;stroke-miterlimit:10;stroke-dasharray:none;stroke-opacity:1"
       id="rect8425-4"
       width="15.809038"
       height="15.809038"
       x="302.25168"
       y="195.47768" />
    <circle
       r="8.1108627"
       style="fill:none;stroke:#000000;stroke-width:1;stroke-linejoin:miter;stroke-miterlimit:10;stroke-dasharray:none;stroke-opacity:1"
       id="path8608"
       cx="341.61868"
       cy="203.34468" />
    <rect
       style="fill:none;stroke:#000000;stroke-width:1;stroke-linejoin:miter;stroke-miterlimit:10;stroke-dasharray:none;stroke-opacity:1"
       id="rect8425-3"
       width="15.809038"
       height="15.809038"
       x="380.96417"
       y="195.44017" />
    <rect
       style="fill:none;stroke:#000000;stroke-width:1;stroke-linejoin:miter;stroke-miterlimit:10;stroke-dasharray:none;stroke-opacity:1"
       id="rect8425-5"
       width="15.809038"
       height="15.809038"
       x="414.71417"
       y="195.44017" />
    <rect
       style="fill:none;stroke:#000000;stroke-width:1;stroke-linejoin:miter;stroke-miterlimit:10;stroke-dasharray:none;stroke-opacity:1"
       id="rect8425-49"
       width="15.809038"
       height="15.809038"
       x="446.17673"
       y="195.47768" />
    <circle
       r="8.1108627"
       style="fill:none;stroke:#000000;stroke-width:1;stroke-linejoin:miter;stroke-miterlimit:10;stroke-dasharray:none;stroke-opacity:1"
       id="path8608-5"
       cx="485.54367"
       cy="203.34468" />
    <rect
       style="fill:none;stroke:#000000;stroke-width:1;stroke-linejoin:miter;stroke-miterlimit:10;stroke-dasharray:none;stroke-opacity:1"
       id="rect8662"
       width="252.21585"
       height="88.157898"
       x="237.50351"
       y="77.829536" />
  </g>
  <g
     id="g4189"
     inkscape:groupmode="layer"
     inkscape:label="newlayer" />
</svg>
